<?xml version="1.0" standalone="no"?>
<!DOCTYPE svg PUBLIC "-//W3C//DTD SVG 20010904//EN"
 "http://www.w3.org/TR/2001/REC-SVG-20010904/DTD/svg10.dtd">
<svg version="1.0" xmlns="http://www.w3.org/2000/svg"
 width="278.000000pt" height="242.000000pt" viewBox="0 0 278.000000 242.000000"
 preserveAspectRatio="xMidYMid meet">

<g transform="translate(0.000000,242.000000) scale(0.100000,-0.100000)"
fill="#000000" stroke="none">
<path d="M1297 2263 c-94 -165 -190 -330 -417 -723 -139 -240 -331 -573 -525
-910 -40 -69 -130 -226 -202 -350 -71 -124 -135 -235 -142 -247 l-12 -23 936
0 c599 0 935 3 935 10 0 12 -227 409 -249 434 -15 18 -34 18 -446 13 -236 -3
-437 -3 -446 1 -14 6 -1 33 74 162 180 312 394 683 580 1005 104 182 198 344
208 361 l18 30 -105 185 c-58 101 -109 188 -114 192 -4 5 -46 -58 -93 -140z"/>
</g>
</svg>
