<svg xmlns="http://www.w3.org/2000/svg" width="26" height="18" viewBox="0 0 26 18" fill="none">
    <path d="M13.9375 1.5H5.8125C3.39625 1.5 1.4375 3.45875 1.4375 5.875V12.125C1.4375 14.5412 3.39625 16.5 5.8125 16.5H13.9375C16.3537 16.5 18.3125 14.5412 18.3125 12.125V5.875C18.3125 3.45875 16.3537 1.5 13.9375 1.5Z" stroke="white" stroke-width="1.75" stroke-linecap="round" stroke-linejoin="round"/>
    <path d="M18.3125 6.17476L22.755 3.96226C22.9456 3.8673 23.1572 3.82259 23.3699 3.83238C23.5826 3.84216 23.7893 3.90612 23.9704 4.01818C24.1514 4.13024 24.3008 4.28669 24.4045 4.47269C24.5081 4.6587 24.5625 4.86809 24.5625 5.08101V12.916C24.5626 13.1291 24.5082 13.3387 24.4045 13.5249C24.3008 13.711 24.1513 13.8676 23.97 13.9797C23.7888 14.0918 23.5819 14.1557 23.3691 14.1653C23.1562 14.175 22.9444 14.13 22.7537 14.0348L18.3125 11.8185V6.17476Z" stroke="white" stroke-width="1.75" stroke-linecap="round" stroke-linejoin="round"/>
</svg>
