<svg xmlns="http://www.w3.org/2000/svg" width="28" height="28" viewBox="0 0 28 28" fill="none">
    <path d="M13.9999 22.1668C11.834 22.1668 9.75676 21.3064 8.22521 19.7749C6.69367 18.2433 5.83325 16.1661 5.83325 14.0002C5.83325 11.8342 6.69367 9.757 8.22521 8.22546C9.75676 6.69391 11.834 5.8335 13.9999 5.8335L13.9999 14.0002L13.9999 22.1668Z" stroke="white" stroke-width="2"/>
    <path d="M5.83333 16.3332C5.21449 16.3332 4.621 16.0873 4.18342 15.6498C3.74583 15.2122 3.5 14.6187 3.5 13.9998C3.5 13.381 3.74583 12.7875 4.18342 12.3499C4.621 11.9123 5.2145 11.6665 5.83333 11.6665" stroke="white" stroke-width="2"/>
    <path d="M16.3333 22.1668C18.4993 22.1668 20.5765 21.3064 22.108 19.7749C23.6396 18.2433 24.5 16.1661 24.5 14.0002C24.5 11.8342 23.6396 9.757 22.108 8.22546C20.5765 6.69391 18.4993 5.8335 16.3333 5.8335" stroke="white" stroke-width="2"/>
    <path d="M16.3333 17.5C17.2615 17.5 18.1517 17.1313 18.8081 16.4749C19.4645 15.8185 19.8333 14.9283 19.8333 14C19.8333 13.0717 19.4645 12.1815 18.8081 11.5251C18.1517 10.8687 17.2615 10.5 16.3333 10.5" stroke="white" stroke-width="2"/>
</svg>
